ffmpeg started on 2025-05-28 at 21:58:23
Report written to "D:\Convert\FFMetrics\reports\ssim_report-6.txt"
Log level: 32
Command line:
ffmpeg -hide_banner -nostdin -i "G:\\\xc0\xed\xe8\xec\xe5\\\xce\xed\xe3\xee\xe8\xed\xe3\xe8\\!_36_\xce\xf1\xe5\xed\xfc_2024\\JamClub\\\xcc\xe5\xf5\xe0\xed\xe8\xf7\xe5\xf1\xea\xe8\xe5 \xf0\xf3\xea\xe8\\JamClub_Mecha_ude_TV_04_1080p_HEVC.mkv" -i "G:\\\xc0\xed\xe8\xec\xe5\\\xce\xed\xe3\xee\xe8\xed\xe3\xe8\\!_36_\xce\xf1\xe5\xed\xfc_2024\\JamClub\\\xcc\xe5\xf5\xe0\xed\xe8\xf7\xe5\xf1\xea\xe8\xe5 \xf0\xf3\xea\xe8\\JamClub_Mecha_ude_TV_04_1080p.mp4" -lavfi "[0:v]settb=AVTB,setpts=PTS-STARTPTS,format=pix_fmts=yuv420p10,fps=24000/1001,scale=1920:1080:flags=bicubic[main];[1:v]settb=AVTB,setpts=PTS-STARTPTS,format=pix_fmts=yuv420p,fps=24000/1001,scale=1920:1080:flags=bicubic[ref];[main][ref]ssim=eof_action=endall:stats_file='D\\:/Convert/FFMetrics/logs/ssim_logfile-6.txt'" -f null -
Input #0, matroska,webm, from 'G:\Аниме\Онгоинги\!_36_Осень_2024\JamClub\Механические руки\JamClub_Mecha_ude_TV_04_1080p_HEVC.mkv':
  Metadata:
    COMPATIBLE_BRANDS: isomiso2avc1mp41
    MAJOR_BRAND     : isom
    MINOR_VERSION   : 512
    ENCODER         : Lavf61.7.100
  Duration: 00:24:04.27, start: -0.001000, bitrate: 1335 kb/s
  Stream #0:0: Video: hevc (Main 10), yuv420p10le(tv, bt709, progressive), 1920x1080 [SAR 1:1 DAR 16:9], 23.98 fps, 23.98 tbr, 1k tbn (default)
      Metadata:
        HANDLER_NAME    : VideoHandler
        VENDOR_ID       : [0][0][0][0]
        ENCODER         : Lavc61.19.100 libx265
        BPS             : 1137426
        DURATION        : 00:24:04.150708333
        NUMBER_OF_FRAMES: 34625
        NUMBER_OF_BYTES : 205326737
        _STATISTICS_WRITING_APP: mkvpropedit v66.0.0 ('Josie') 64-bit
        _STATISTICS_WRITING_DATE_UTC: 2025-05-28 15:00:02
        _STATISTICS_TAGS: BPS DURATION NUMBER_OF_FRAMES NUMBER_OF_BYTES
  Stream #0:1(eng): Audio: aac (LC), 48000 Hz, stereo, fltp (default)
      Metadata:
        HANDLER_NAME    : SoundHandler
        VENDOR_ID       : [0][0][0][0]
        ENCODER         : Lavc61.19.100 aac
        BPS             : 194028
        DURATION        : 00:24:04.227000000
        NUMBER_OF_FRAMES: 67699
        NUMBER_OF_BYTES : 35027614
        _STATISTICS_WRITING_APP: mkvpropedit v66.0.0 ('Josie') 64-bit
        _STATISTICS_WRITING_DATE_UTC: 2025-05-28 15:00:02
        _STATISTICS_TAGS: BPS DURATION NUMBER_OF_FRAMES NUMBER_OF_BYTES
Input #1, mov,mp4,m4a,3gp,3g2,mj2, from 'G:\Аниме\Онгоинги\!_36_Осень_2024\JamClub\Механические руки\JamClub_Mecha_ude_TV_04_1080p.mp4':
  Metadata:
    major_brand     : isom
    minor_version   : 512
    compatible_brands: isomiso2avc1mp41
    encoder         : Lavf60.16.100
  Duration: 00:24:04.25, start: 0.000000, bitrate: 3923 kb/s
  Stream #1:0[0x1](und): Video: h264 (High) (avc1 / 0x31637661), yuv420p(progressive), 1920x1080 [SAR 1:1 DAR 16:9], 3725 kb/s, 23.98 fps, 23.98 tbr, 90k tbn (default)
      Metadata:
        handler_name    : VideoHandler
        vendor_id       : [0][0][0][0]
  Stream #1:1[0x2](eng): Audio: aac (LC) (mp4a / 0x6134706D), 48000 Hz, stereo, fltp, 191 kb/s (default)
      Metadata:
        handler_name    : SoundHandler
        vendor_id       : [0][0][0][0]
Stream mapping:
  Stream #0:0 (hevc) -> settb:default
  Stream #1:0 (h264) -> settb:default
  ssim:default -> Stream #0:0 (wrapped_avframe)
  Stream #0:1 -> #0:1 (aac (native) -> pcm_s16le (native))
Output #0, null, to 'pipe:':
  Metadata:
    COMPATIBLE_BRANDS: isomiso2avc1mp41
    MAJOR_BRAND     : isom
    MINOR_VERSION   : 512
    encoder         : Lavf61.7.100
  Stream #0:0: Video: wrapped_avframe, yuv420p10le(tv, bt709, progressive), 1920x1080 [SAR 1:1 DAR 16:9], q=2-31, 200 kb/s, 23.98 fps, 23.98 tbn
      Metadata:
        encoder         : Lavc61.19.100 wrapped_avframe
  Stream #0:1(eng): Audio: pcm_s16le, 48000 Hz, stereo, s16, 1536 kb/s (default)
      Metadata:
        HANDLER_NAME    : SoundHandler
        VENDOR_ID       : [0][0][0][0]
        _STATISTICS_TAGS: BPS DURATION NUMBER_OF_FRAMES NUMBER_OF_BYTES
        BPS             : 194028
        DURATION        : 00:24:04.227000000
        NUMBER_OF_FRAMES: 67699
        NUMBER_OF_BYTES : 35027614
        _STATISTICS_WRITING_APP: mkvpropedit v66.0.0 ('Josie') 64-bit
        _STATISTICS_WRITING_DATE_UTC: 2025-05-28 15:00:02
        encoder         : Lavc61.19.100 pcm_s16le
frame=  110 fps=0.0 q=-0.0 size=N/A time=00:00:04.58 bitrate=N/A speed=9.02x    frame=  278 fps=270 q=-0.0 size=N/A time=00:00:11.59 bitrate=N/A speed=11.2x    frame=  478 fps=311 q=-0.0 size=N/A time=00:00:19.93 bitrate=N/A speed=  13x    frame=  740 fps=359 q=-0.0 size=N/A time=00:00:30.86 bitrate=N/A speed=  15x    frame=  991 fps=384 q=-0.0 size=N/A time=00:00:41.33 bitrate=N/A speed=  16x    frame= 1219 fps=394 q=-0.0 size=N/A time=00:00:50.84 bitrate=N/A speed=16.4x    frame= 1464 fps=406 q=-0.0 size=N/A time=00:01:01.06 bitrate=N/A speed=16.9x    frame= 1714 fps=415 q=-0.0 size=N/A time=00:01:11.48 bitrate=N/A speed=17.3x    frame= 1916 fps=413 q=-0.0 size=N/A time=00:01:19.91 bitrate=N/A speed=17.2x    frame= 2190 fps=424 q=-0.0 size=N/A time=00:01:31.34 bitrate=N/A speed=17.7x    frame= 2415 fps=426 q=-0.0 size=N/A time=00:01:40.72 bitrate=N/A speed=17.8x    frame= 2673 fps=432 q=-0.0 size=N/A time=00:01:51.48 bitrate=N/A speed=  18x    frame= 2890 fps=432 q=-0.0 size=N/A time=00:02:00.53 bitrate=N/A speed=  18x    frame= 3149 fps=436 q=-0.0 size=N/A time=00:02:11.33 bitrate=N/A speed=18.2x    frame= 3319 fps=429 q=-0.0 size=N/A time=00:02:18.42 bitrate=N/A speed=17.9x    frame= 3569 fps=433 q=-0.0 size=N/A time=00:02:28.85 bitrate=N/A speed=18.1x    frame= 3791 fps=432 q=-0.0 size=N/A time=00:02:38.11 bitrate=N/A speed=  18x    frame= 4037 fps=435 q=-0.0 size=N/A time=00:02:48.37 bitrate=N/A speed=18.1x    frame= 4295 fps=439 q=-0.0 size=N/A time=00:02:59.13 bitrate=N/A speed=18.3x    frame= 4527 fps=439 q=-0.0 size=N/A time=00:03:08.81 bitrate=N/A speed=18.3x    frame= 4796 fps=443 q=-0.0 size=N/A time=00:03:20.03 bitrate=N/A speed=18.5x    frame= 5049 fps=445 q=-0.0 size=N/A time=00:03:30.58 bitrate=N/A speed=18.6x    frame= 5252 fps=443 q=-0.0 size=N/A time=00:03:39.05 bitrate=N/A speed=18.5x    frame= 5467 fps=442 q=-0.0 size=N/A time=00:03:48.01 bitrate=N/A speed=18.4x    frame= 5707 fps=443 q=-0.0 size=N/A time=00:03:58.02 bitrate=N/A speed=18.5x    frame= 5923 fps=442 q=-0.0 size=N/A time=00:04:07.03 bitrate=N/A speed=18.4x    frame= 6152 fps=442 q=-0.0 size=N/A time=00:04:16.58 bitrate=N/A speed=18.4x    frame= 6374 fps=442 q=-0.0 size=N/A time=00:04:25.84 bitrate=N/A speed=18.4x    frame= 6588 fps=440 q=-0.0 size=N/A time=00:04:34.77 bitrate=N/A speed=18.4x    frame= 6778 fps=438 q=-0.0 size=N/A time=00:04:42.69 bitrate=N/A speed=18.3x    frame= 6998 fps=438 q=-0.0 size=N/A time=00:04:51.87 bitrate=N/A speed=18.3x    frame= 7268 fps=440 q=-0.0 size=N/A time=00:05:03.13 bitrate=N/A speed=18.4x    frame= 7485 fps=440 q=-0.0 size=N/A time=00:05:12.18 bitrate=N/A speed=18.3x    frame= 7669 fps=437 q=-0.0 size=N/A time=00:05:19.86 bitrate=N/A speed=18.2x    frame= 7865 fps=436 q=-0.0 size=N/A time=00:05:28.03 bitrate=N/A speed=18.2x    frame= 8078 fps=435 q=-0.0 size=N/A time=00:05:36.91 bitrate=N/A speed=18.2x    frame= 8217 fps=431 q=-0.0 size=N/A time=00:05:42.71 bitrate=N/A speed=  18x    frame= 8374 fps=428 q=-0.0 size=N/A time=00:05:49.26 bitrate=N/A speed=17.8x    frame= 8529 fps=424 q=-0.0 size=N/A time=00:05:55.73 bitrate=N/A speed=17.7x    frame= 8724 fps=423 q=-0.0 size=N/A time=00:06:03.86 bitrate=N/A speed=17.6x    frame= 8942 fps=423 q=-0.0 size=N/A time=00:06:12.95 bitrate=N/A speed=17.6x    frame= 9184 fps=424 q=-0.0 size=N/A time=00:06:23.04 bitrate=N/A speed=17.7x    frame= 9408 fps=424 q=-0.0 size=N/A time=00:06:32.39 bitrate=N/A speed=17.7x    frame= 9694 fps=427 q=-0.0 size=N/A time=00:06:44.32 bitrate=N/A speed=17.8x    frame= 9959 fps=429 q=-0.0 size=N/A time=00:06:55.37 bitrate=N/A speed=17.9x    frame=10249 fps=432 q=-0.0 size=N/A time=00:07:07.46 bitrate=N/A speed=  18x    frame=10483 fps=433 q=-0.0 size=N/A time=00:07:17.22 bitrate=N/A speed=  18x    frame=10762 fps=435 q=-0.0 size=N/A time=00:07:28.86 bitrate=N/A speed=18.1x    frame=11045 fps=437 q=-0.0 size=N/A time=00:07:40.66 bitrate=N/A speed=18.2x    frame=11305 fps=439 q=-0.0 size=N/A time=00:07:51.51 bitrate=N/A speed=18.3x    frame=11575 fps=440 q=-0.0 size=N/A time=00:08:02.77 bitrate=N/A speed=18.4x    frame=11812 fps=441 q=-0.0 size=N/A time=00:08:12.65 bitrate=N/A speed=18.4x    frame=12068 fps=442 q=-0.0 size=N/A time=00:08:23.33 bitrate=N/A speed=18.4x    frame=12312 fps=442 q=-0.0 size=N/A time=00:08:33.51 bitrate=N/A speed=18.4x    frame=12491 fps=440 q=-0.0 size=N/A time=00:08:40.97 bitrate=N/A speed=18.4x    frame=12732 fps=441 q=-0.0 size=N/A time=00:08:51.03 bitrate=N/A speed=18.4x    frame=12988 fps=442 q=-0.0 size=N/A time=00:09:01.70 bitrate=N/A speed=18.4x    frame=13178 fps=440 q=-0.0 size=N/A time=00:09:09.63 bitrate=N/A speed=18.4x    frame=13448 fps=442 q=-0.0 size=N/A time=00:09:20.89 bitrate=N/A speed=18.4x    frame=13664 fps=441 q=-0.0 size=N/A time=00:09:29.90 bitrate=N/A speed=18.4x    frame=13874 fps=441 q=-0.0 size=N/A time=00:09:38.66 bitrate=N/A speed=18.4x    frame=14099 fps=441 q=-0.0 size=N/A time=00:09:48.04 bitrate=N/A speed=18.4x    frame=14365 fps=442 q=-0.0 size=N/A time=00:09:59.14 bitrate=N/A speed=18.4x    frame=14604 fps=442 q=-0.0 size=N/A time=00:10:09.10 bitrate=N/A speed=18.4x    frame=14866 fps=443 q=-0.0 size=N/A time=00:10:20.03 bitrate=N/A speed=18.5x    frame=15144 fps=445 q=-0.0 size=N/A time=00:10:31.63 bitrate=N/A speed=18.5x    frame=15428 fps=446 q=-0.0 size=N/A time=00:10:43.47 bitrate=N/A speed=18.6x    frame=15712 fps=448 q=-0.0 size=N/A time=00:10:55.32 bitrate=N/A speed=18.7x    frame=15910 fps=447 q=-0.0 size=N/A time=00:11:03.57 bitrate=N/A speed=18.6x    frame=16143 fps=447 q=-0.0 size=N/A time=00:11:13.29 bitrate=N/A speed=18.6x    frame=16415 fps=448 q=-0.0 size=N/A time=00:11:24.64 bitrate=N/A speed=18.7x    frame=16645 fps=448 q=-0.0 size=N/A time=00:11:34.23 bitrate=N/A speed=18.7x    frame=16895 fps=448 q=-0.0 size=N/A time=00:11:44.66 bitrate=N/A speed=18.7x    frame=17155 fps=449 q=-0.0 size=N/A time=00:11:55.50 bitrate=N/A speed=18.7x    frame=17404 fps=450 q=-0.0 size=N/A time=00:12:05.89 bitrate=N/A speed=18.8x    frame=17667 fps=451 q=-0.0 size=N/A time=00:12:16.86 bitrate=N/A speed=18.8x    frame=17941 fps=451 q=-0.0 size=N/A time=00:12:28.28 bitrate=N/A speed=18.8x    frame=18170 fps=451 q=-0.0 size=N/A time=00:12:37.84 bitrate=N/A speed=18.8x    frame=18410 fps=452 q=-0.0 size=N/A time=00:12:47.85 bitrate=N/A speed=18.8x    frame=18693 fps=453 q=-0.0 size=N/A time=00:12:59.65 bitrate=N/A speed=18.9x    frame=18954 fps=454 q=-0.0 size=N/A time=00:13:10.53 bitrate=N/A speed=18.9x    frame=19223 fps=454 q=-0.0 size=N/A time=00:13:21.75 bitrate=N/A speed=18.9x    frame=19471 fps=455 q=-0.0 size=N/A time=00:13:32.10 bitrate=N/A speed=  19x    frame=19723 fps=455 q=-0.0 size=N/A time=00:13:42.61 bitrate=N/A speed=  19x    frame=19992 fps=456 q=-0.0 size=N/A time=00:13:53.83 bitrate=N/A speed=  19x    frame=20269 fps=457 q=-0.0 size=N/A time=00:14:05.38 bitrate=N/A speed=  19x    frame=20500 fps=456 q=-0.0 size=N/A time=00:14:15.02 bitrate=N/A speed=  19x    frame=20754 fps=457 q=-0.0 size=N/A time=00:14:25.61 bitrate=N/A speed=19.1x    frame=21038 fps=458 q=-0.0 size=N/A time=00:14:37.45 bitrate=N/A speed=19.1x    frame=21288 fps=458 q=-0.0 size=N/A time=00:14:47.88 bitrate=N/A speed=19.1x    frame=21563 fps=459 q=-0.0 size=N/A time=00:14:59.35 bitrate=N/A speed=19.1x    frame=21794 fps=459 q=-0.0 size=N/A time=00:15:08.99 bitrate=N/A speed=19.1x    frame=22009 fps=459 q=-0.0 size=N/A time=00:15:17.95 bitrate=N/A speed=19.1x    frame=22280 fps=459 q=-0.0 size=N/A time=00:15:29.26 bitrate=N/A speed=19.2x    frame=22515 fps=459 q=-0.0 size=N/A time=00:15:39.06 bitrate=N/A speed=19.1x    frame=22789 fps=460 q=-0.0 size=N/A time=00:15:50.49 bitrate=N/A speed=19.2x    frame=23041 fps=460 q=-0.0 size=N/A time=00:16:01.00 bitrate=N/A speed=19.2x    frame=23326 fps=461 q=-0.0 size=N/A time=00:16:12.88 bitrate=N/A speed=19.2x    frame=23592 fps=462 q=-0.0 size=N/A time=00:16:23.98 bitrate=N/A speed=19.3x    frame=23863 fps=462 q=-0.0 size=N/A time=00:16:35.28 bitrate=N/A speed=19.3x    frame=24143 fps=463 q=-0.0 size=N/A time=00:16:46.96 bitrate=N/A speed=19.3x    frame=24405 fps=463 q=-0.0 size=N/A time=00:16:57.89 bitrate=N/A speed=19.3x    frame=24649 fps=464 q=-0.0 size=N/A time=00:17:08.06 bitrate=N/A speed=19.3x    frame=24903 fps=464 q=-0.0 size=N/A time=00:17:18.66 bitrate=N/A speed=19.3x    frame=25142 fps=464 q=-0.0 size=N/A time=00:17:28.63 bitrate=N/A speed=19.3x    frame=25368 fps=464 q=-0.0 size=N/A time=00:17:38.05 bitrate=N/A speed=19.3x    frame=25604 fps=464 q=-0.0 size=N/A time=00:17:47.90 bitrate=N/A speed=19.3x    frame=25861 fps=464 q=-0.0 size=N/A time=00:17:58.61 bitrate=N/A speed=19.3x    frame=26110 fps=464 q=-0.0 size=N/A time=00:18:09.00 bitrate=N/A speed=19.4x    frame=26351 fps=464 q=-0.0 size=N/A time=00:18:19.05 bitrate=N/A speed=19.4x    frame=26614 fps=465 q=-0.0 size=N/A time=00:18:30.02 bitrate=N/A speed=19.4x    frame=26857 fps=465 q=-0.0 size=N/A time=00:18:40.16 bitrate=N/A speed=19.4x    frame=27096 fps=465 q=-0.0 size=N/A time=00:18:50.12 bitrate=N/A speed=19.4x    frame=27344 fps=465 q=-0.0 size=N/A time=00:19:00.47 bitrate=N/A speed=19.4x    frame=27580 fps=465 q=-0.0 size=N/A time=00:19:10.31 bitrate=N/A speed=19.4x    frame=27829 fps=465 q=-0.0 size=N/A time=00:19:20.70 bitrate=N/A speed=19.4x    frame=28059 fps=465 q=-0.0 size=N/A time=00:19:30.29 bitrate=N/A speed=19.4x    frame=28292 fps=464 q=-0.0 size=N/A time=00:19:40.01 bitrate=N/A speed=19.4x    frame=28539 fps=464 q=-0.0 size=N/A time=00:19:50.31 bitrate=N/A speed=19.4x    frame=28801 fps=465 q=-0.0 size=N/A time=00:20:01.24 bitrate=N/A speed=19.4x    frame=29038 fps=465 q=-0.0 size=N/A time=00:20:11.12 bitrate=N/A speed=19.4x    frame=29273 fps=465 q=-0.0 size=N/A time=00:20:20.92 bitrate=N/A speed=19.4x    frame=29543 fps=465 q=-0.0 size=N/A time=00:20:32.18 bitrate=N/A speed=19.4x    frame=29778 fps=465 q=-0.0 size=N/A time=00:20:41.99 bitrate=N/A speed=19.4x    frame=30054 fps=466 q=-0.0 size=N/A time=00:20:53.50 bitrate=N/A speed=19.4x    frame=30317 fps=466 q=-0.0 size=N/A time=00:21:04.47 bitrate=N/A speed=19.4x    frame=30588 fps=467 q=-0.0 size=N/A time=00:21:15.77 bitrate=N/A speed=19.5x    frame=30871 fps=467 q=-0.0 size=N/A time=00:21:27.57 bitrate=N/A speed=19.5x    frame=31125 fps=467 q=-0.0 size=N/A time=00:21:38.17 bitrate=N/A speed=19.5x    frame=31410 fps=468 q=-0.0 size=N/A time=00:21:50.05 bitrate=N/A speed=19.5x    frame=31680 fps=468 q=-0.0 size=N/A time=00:22:01.32 bitrate=N/A speed=19.5x    frame=31954 fps=469 q=-0.0 size=N/A time=00:22:12.74 bitrate=N/A speed=19.6x    frame=32225 fps=469 q=-0.0 size=N/A time=00:22:24.05 bitrate=N/A speed=19.6x    frame=32494 fps=470 q=-0.0 size=N/A time=00:22:35.27 bitrate=N/A speed=19.6x    frame=32750 fps=470 q=-0.0 size=N/A time=00:22:45.94 bitrate=N/A speed=19.6x    frame=33006 fps=470 q=-0.0 size=N/A time=00:22:56.62 bitrate=N/A speed=19.6x    frame=33261 fps=470 q=-0.0 size=N/A time=00:23:07.26 bitrate=N/A speed=19.6x    frame=33524 fps=471 q=-0.0 size=N/A time=00:23:18.23 bitrate=N/A speed=19.6x    frame=33777 fps=471 q=-0.0 size=N/A time=00:23:28.78 bitrate=N/A speed=19.6x    frame=34023 fps=471 q=-0.0 size=N/A time=00:23:39.04 bitrate=N/A speed=19.6x    frame=34303 fps=471 q=-0.0 size=N/A time=00:23:50.72 bitrate=N/A speed=19.7x    frame=34562 fps=472 q=-0.0 size=N/A time=00:24:01.52 bitrate=N/A speed=19.7x    [Parsed_ssim_10 @ 0000025e39949a80] SSIM Y:0.993590 (21.931451) U:0.994235 (22.392023) V:0.994267 (22.415998) All:0.993810 (22.083323)
[out#0/null @ 0000025e2d3806c0] video:14878KiB audio:270796KiB subtitle:0KiB other streams:0KiB global headers:0KiB muxing overhead: unknown
frame=34625 fps=472 q=-0.0 Lsize=N/A time=00:24:04.15 bitrate=N/A speed=19.7x    
